# xmcd
#
# Track frame offsets:
#	150
#	17278
#	36349
#	54135
#	75530
#	91845
#	116004
#	135411
#	154793
#	169495
#	185979
#	207104
#
# Disc length: 2967 seconds
#
# Revision: 2
# Processed by: cddbd v1.5.2PL0 Copyright (c) Steve Scherf et al.
# Submitted via: audiograbber 1.83.01
#
DISCID=930b950c
DTITLE=NonPlusUltra - Love Songs CD3
DYEAR=2007
DGENRE=Pop
TTITLE0=Robyn - You've got that somethin'
TTITLE1=The Alan Parsons Project - Don't answer me
TTITLE2=Bangles - Eternal flame
TTITLE3=Thompson Twins - Hold me now
TTITLE4=Fairground Attraction - Perfect
TTITLE5=Daryl Hall and John Oates - Everytime you go away
TTITLE6=Paul Young - Don't dream it's over
TTITLE7=David A. Stewart and Candy Dulfer - Lili was here
TTITLE8=Blue System - Love suite
TTITLE9=Mr. Mister - Run to her
TTITLE10=Daryl Hall and John Oates - So close
TTITLE11=Rick Astley - Together forever
EXTD=
EXTT0=
EXTT1=
EXTT2=
EXTT3=
EXTT4=
EXTT5=
EXTT6=
EXTT7=
EXTT8=
EXTT9=
EXTT10=
EXTT11=
PLAYORDER=
